<svg width="401" height="401" viewBox="0 0 401 401" fill="none" xmlns="http://www.w3.org/2000/svg">
<path d="M324.649 187.853C344.972 188.583 364.22 197.166 378.34 211.795C392.459 226.424 400.35 245.958 400.35 266.284C400.35 286.61 392.459 306.144 378.34 320.773C364.22 335.402 344.972 343.984 324.649 344.714H295.17C289.187 377.013 269.785 400.107 246.031 400.107H147.753C132.809 400.107 118.776 390.836 109.308 374.633C100.71 359.034 96.3592 341.452 96.6889 323.646C96.6889 280.81 119.136 247.246 147.753 247.246H246.031C261.026 247.246 275.059 256.507 284.532 272.664C291.64 285.475 295.794 299.712 296.69 314.335H324.654C337.022 313.767 348.696 308.457 357.248 299.507C365.8 290.558 370.572 278.659 370.572 266.284C370.572 253.909 365.8 242.009 357.248 233.06C348.696 224.111 337.022 218.801 324.654 218.233H76.4253C56.1016 217.503 36.8539 208.92 22.7342 194.292C8.61445 179.663 0.724121 160.129 0.724121 139.803C0.724121 119.476 8.61445 99.9429 22.7342 85.3141C36.8539 70.6853 56.1016 62.1026 76.4253 61.3725H104.946C109.556 26.0308 129.87 0.106689 155.048 0.106689H253.326C268.27 0.106689 282.303 9.37251 291.776 25.575C300.369 41.1759 304.719 58.7566 304.39 76.5624C304.824 95.7054 299.685 114.562 289.598 130.841C280.378 144.562 267.617 152.962 253.326 152.962H155.048C140.053 152.962 126.02 143.702 116.547 127.545C110.347 116.499 106.404 104.333 104.946 91.7523H76.4253C64.0568 92.32 52.3829 97.6303 43.831 106.579C35.279 115.528 30.5069 127.428 30.5069 139.803C30.5069 152.178 35.279 164.077 43.831 173.026C52.3829 181.975 64.0568 187.286 76.4253 187.853H324.649ZM253.321 122.583C261.528 122.583 273.99 104.208 273.99 76.5624C274.256 64.1601 271.362 51.8937 265.58 40.9168C261.73 34.3852 257.176 30.4864 253.321 30.4864C245.064 30.4864 232.601 48.8611 232.601 76.5624C232.601 104.264 245.064 122.583 253.321 122.583ZM246.026 369.727C254.233 369.727 266.695 351.347 266.695 323.651C266.975 311.244 264.081 298.971 258.285 287.995C254.435 281.514 249.881 277.616 246.026 277.616H188.731C195.406 292.051 198.863 307.764 198.863 323.666C198.863 339.569 195.406 355.281 188.731 369.717L246.026 369.727ZM212.338 30.4864H155.043C146.836 30.4864 134.374 48.8611 134.374 76.5624C134.089 88.9489 136.985 101.202 142.783 112.152C146.633 118.684 151.193 122.583 155.043 122.583H212.338C205.663 108.148 202.206 92.4363 202.206 76.5346C202.206 60.6329 205.663 44.921 212.338 30.4864ZM168.467 323.651C168.467 295.955 156.005 277.631 147.748 277.631C139.49 277.631 127.079 295.955 127.079 323.651C126.812 336.054 129.708 348.321 135.494 359.297C139.339 365.833 143.898 369.732 147.748 369.732C156.005 369.727 168.467 351.347 168.467 323.646V323.651Z" fill="#0DE8D620"/>
<path d="M377.081 16.9673C392.163 33.1436 400.545 54.4356 400.536 76.5471C400.526 98.6585 392.126 119.943 377.03 136.107C375.614 137.597 373.909 138.784 372.019 139.593C370.129 140.403 368.093 140.819 366.037 140.816C362.126 140.838 358.362 139.329 355.551 136.613C354.103 135.239 352.941 133.592 352.131 131.768C351.322 129.943 350.881 127.977 350.834 125.982C350.787 123.986 351.134 122.001 351.857 120.141C352.579 118.28 353.662 116.581 355.044 115.14C364.83 104.657 370.277 90.8564 370.286 76.5191C370.296 62.1818 364.867 48.374 355.095 37.8787C353.591 36.4631 352.392 34.7559 351.57 32.8615C350.749 30.9671 350.323 28.9251 350.317 26.8604C350.312 24.7958 350.728 22.7518 351.54 20.8532C352.351 18.9546 353.542 17.2413 355.038 15.818C356.535 14.3947 358.306 13.2913 360.243 12.5751C362.181 11.8589 364.244 11.5449 366.307 11.6525C368.37 11.76 370.389 12.2869 372.241 13.2008C374.094 14.1146 375.74 15.3961 377.081 16.9673Z" fill="#0DE8D620"/>
<path d="M340.049 38.9371C349.557 49.3283 354.863 62.8793 354.938 76.9603C355.013 91.0413 349.851 104.648 340.454 115.14C337.713 118.094 333.91 119.839 329.882 119.991C325.854 120.143 321.931 118.689 318.975 115.95C316.019 113.21 314.273 109.409 314.121 105.383C313.969 101.357 315.423 97.4357 318.164 94.4814C322.367 89.655 324.657 83.4575 324.601 77.0592C324.545 70.6608 322.147 64.5044 317.86 59.7522C315.099 56.812 313.619 52.8958 313.746 48.865C313.873 44.8341 315.597 41.0189 318.539 38.2586C321.481 35.4983 325.399 34.0191 329.432 34.1464C333.465 34.2736 337.282 35.9969 340.044 38.9371H340.049Z" fill="#0DE8D620"/>
<path d="M83.2085 340.456C85.9701 343.397 87.4498 347.314 87.322 351.345C87.1942 355.376 85.4695 359.192 82.5271 361.952C79.5848 364.713 75.6658 366.191 71.6324 366.064C67.599 365.936 63.7815 364.212 61.0199 361.271C51.5132 350.879 46.2078 337.329 46.1329 323.248C46.0581 309.167 51.2191 295.561 60.6147 285.069C63.3555 282.114 67.1583 280.369 71.1864 280.217C75.2146 280.065 79.1381 281.519 82.094 284.259C85.0498 286.998 86.7957 290.799 86.9477 294.825C87.0997 298.851 85.6454 302.773 82.9045 305.727C78.6994 310.552 76.4082 316.75 76.4643 323.149C76.5203 329.548 78.9195 335.705 83.2085 340.456Z" fill="#0DE8D620"/>
<path d="M45.9793 362.334C48.5007 365.291 49.7927 369.102 49.5895 372.981C49.3862 376.861 47.7033 380.516 44.8867 383.194C42.0702 385.871 38.334 387.368 34.4468 387.377C30.5597 387.386 26.8169 385.906 23.9883 383.241C8.90659 367.064 0.525312 345.772 0.535654 323.66C0.545996 301.549 8.94727 280.264 24.0441 264.102C26.8537 261.311 30.6423 259.727 34.6031 259.687C38.564 259.647 42.3839 261.154 45.2494 263.887C48.1149 266.62 49.7996 270.364 49.9444 274.32C50.0893 278.277 48.6829 282.133 46.0249 285.069C36.2477 295.557 30.8077 309.357 30.7992 323.693C30.7908 338.028 36.2145 351.835 45.9793 362.334Z" fill="#0DE8D620"/>
</svg>
